<svg width="44" height="35" viewBox="0 0 44 35" fill="none" xmlns="http://www.w3.org/2000/svg">
<path d="M43.0706 4.11765C41.4853 4.83824 39.7765 5.31176 38.0059 5.53824C39.8176 4.44706 41.2176 2.71765 41.8765 0.638235C40.1676 1.66765 38.2735 2.38824 36.2765 2.8C34.65 1.02941 32.3647 0 29.7706 0C24.9324 0 20.9794 3.95294 20.9794 8.83235C20.9794 9.53235 21.0618 10.2118 21.2059 10.85C13.8765 10.4794 7.35 6.95882 3.00588 1.62647C2.24412 2.92353 1.81176 4.44706 1.81176 6.05294C1.81176 9.12059 3.35588 11.8382 5.74412 13.3824C4.28235 13.3824 2.92353 12.9706 1.72941 12.3529V12.4147C1.72941 16.6971 4.77647 20.2794 8.81177 21.0824C7.5162 21.4369 6.15608 21.4862 4.83824 21.2265C5.39743 22.9816 6.49258 24.5173 7.96974 25.6178C9.4469 26.7183 11.2318 27.3282 13.0735 27.3618C9.95159 29.8333 6.08176 31.1692 2.1 31.15C1.4 31.15 0.7 31.1088 0 31.0265C3.91176 33.5382 8.5647 35 13.5471 35C29.7706 35 38.6853 21.5353 38.6853 9.86177C38.6853 9.47059 38.6853 9.1 38.6647 8.70882C40.3941 7.47353 41.8765 5.90882 43.0706 4.11765Z" fill="#ECECEC"/>
</svg>
